# xmcd
#
# Track frame offsets:
# 183
# 19668
# 33270
# 50480
#
# Disc length: 1000 seconds
#
#
# Revision: 0
# Processed by: cddbd v1.5.1PL0 Copyright (c) Steve Scherf et al.
# Submitted via: FreeRIP 2.90 
#
DISCID=2703e604
DTITLE=Jann Arden - Insensitive
DYEAR=1995
DGENRE=Country
TTITLE0=Insensitive
TTITLE1=Frankie In The Rain
TTITLE2=Living Under June
TTITLE3=It Looks Like Rain
EXTD=
EXTT0=
EXTT1=
EXTT2=
EXTT3=
PLAYORDER=
